<svg width="314" height="34" viewBox="0 0 314 34" fill="none" xmlns="http://www.w3.org/2000/svg">
<rect width="314" height="34" fill="url(#paint0_linear_9824_99120)"/>
<path d="M39.6784 21V14.4545H41.9667C42.4227 14.4545 42.7987 14.5334 43.0949 14.6911C43.3911 14.8466 43.6116 15.0565 43.7565 15.3207C43.9014 15.5827 43.9738 15.8736 43.9738 16.1932C43.9738 16.4744 43.9237 16.7067 43.8236 16.8899C43.7256 17.0732 43.5956 17.218 43.4337 17.3246C43.2739 17.4311 43.1002 17.5099 42.9127 17.5611V17.625C43.113 17.6378 43.3144 17.7081 43.5168 17.8359C43.7192 17.9638 43.8886 18.147 44.0249 18.3857C44.1613 18.6243 44.2295 18.9162 44.2295 19.2614C44.2295 19.5895 44.1549 19.8846 44.0058 20.1467C43.8566 20.4087 43.6212 20.6165 43.2994 20.7699C42.9777 20.9233 42.559 21 42.0434 21H39.6784ZM40.471 20.2969H42.0434C42.5612 20.2969 42.9287 20.1967 43.146 19.9964C43.3655 19.794 43.4752 19.549 43.4752 19.2614C43.4752 19.0398 43.4188 18.8352 43.3058 18.6477C43.1929 18.4581 43.032 18.3068 42.8232 18.1939C42.6144 18.0788 42.3673 18.0213 42.0818 18.0213H40.471V20.2969ZM40.471 17.331H41.9411C42.1798 17.331 42.395 17.2841 42.5867 17.1903C42.7806 17.0966 42.934 16.9645 43.047 16.794C43.162 16.6236 43.2195 16.4233 43.2195 16.1932C43.2195 15.9055 43.1194 15.6616 42.9191 15.4613C42.7188 15.2589 42.4014 15.1577 41.9667 15.1577H40.471V17.331ZM47.4239 21.1023C46.9807 21.1023 46.5919 20.9968 46.2574 20.7859C45.925 20.5749 45.665 20.2798 45.4775 19.9006C45.2922 19.5213 45.1995 19.0781 45.1995 18.571C45.1995 18.0597 45.2922 17.6133 45.4775 17.2319C45.665 16.8505 45.925 16.5543 46.2574 16.3434C46.5919 16.1325 46.9807 16.027 47.4239 16.027C47.8671 16.027 48.2549 16.1325 48.5873 16.3434C48.9218 16.5543 49.1817 16.8505 49.3671 17.2319C49.5546 17.6133 49.6483 18.0597 49.6483 18.571C49.6483 19.0781 49.5546 19.5213 49.3671 19.9006C49.1817 20.2798 48.9218 20.5749 48.5873 20.7859C48.2549 20.9968 47.8671 21.1023 47.4239 21.1023ZM47.4239 20.4247C47.7606 20.4247 48.0376 20.3384 48.2549 20.1658C48.4722 19.9933 48.6331 19.7663 48.7375 19.4851C48.8419 19.2038 48.8941 18.8991 48.8941 18.571C48.8941 18.2429 48.8419 17.9371 48.7375 17.6538C48.6331 17.3704 48.4722 17.1413 48.2549 16.9666C48.0376 16.7919 47.7606 16.7045 47.4239 16.7045C47.0873 16.7045 46.8103 16.7919 46.593 16.9666C46.3756 17.1413 46.2148 17.3704 46.1104 17.6538C46.0059 17.9371 45.9537 18.2429 45.9537 18.571C45.9537 18.8991 46.0059 19.2038 46.1104 19.4851C46.2148 19.7663 46.3756 19.9933 46.593 20.1658C46.8103 20.3384 47.0873 20.4247 47.4239 20.4247ZM50.4929 19.7472H51.2983C51.3153 19.9687 51.4155 20.1371 51.5987 20.2521C51.7841 20.3672 52.0249 20.4247 52.321 20.4247C52.6236 20.4247 52.8825 20.3629 53.0977 20.2393C53.3129 20.1136 53.4205 19.9112 53.4205 19.6321C53.4205 19.468 53.38 19.3253 53.299 19.2038C53.218 19.0803 53.104 18.9844 52.957 18.9162C52.81 18.848 52.6364 18.8139 52.4361 18.8139H51.5923V18.1364H52.4361C52.7365 18.1364 52.9581 18.0682 53.1009 17.9318C53.2457 17.7955 53.3182 17.625 53.3182 17.4205C53.3182 17.201 53.2404 17.0252 53.0849 16.8931C52.9293 16.7589 52.7088 16.6918 52.4233 16.6918C52.1357 16.6918 51.896 16.7567 51.7042 16.8867C51.5124 17.0146 51.4112 17.1797 51.4006 17.3821H50.608C50.6165 17.1179 50.6974 16.8846 50.8509 16.6822C51.0043 16.4776 51.2131 16.3178 51.4773 16.2028C51.7415 16.0856 52.044 16.027 52.3849 16.027C52.7301 16.027 53.0295 16.0877 53.283 16.2092C53.5387 16.3285 53.7358 16.4915 53.8743 16.6982C54.0149 16.9027 54.0852 17.1349 54.0852 17.3949C54.0852 17.6719 54.0075 17.8956 53.8519 18.0661C53.6964 18.2365 53.5014 18.358 53.267 18.4304V18.4815C53.4524 18.4943 53.6133 18.554 53.7496 18.6605C53.8881 18.7649 53.9957 18.9023 54.0724 19.0728C54.1491 19.2411 54.1875 19.4276 54.1875 19.6321C54.1875 19.9304 54.1076 20.1903 53.9478 20.4119C53.788 20.6314 53.5685 20.8018 53.2894 20.9233C53.0103 21.0426 52.6918 21.1023 52.3338 21.1023C51.9865 21.1023 51.6754 21.0458 51.4006 20.9329C51.1257 20.8178 50.9073 20.6591 50.7454 20.4567C50.5856 20.2521 50.5014 20.0156 50.4929 19.7472ZM57.9316 19.9773L59.6447 16.0909H60.3606L58.2385 21H57.6248L55.541 16.0909H56.2441L57.9316 19.9773ZM56.0012 16.0909V21H55.247V16.0909H56.0012ZM59.862 21V16.0909H60.6163V21H59.862ZM63.9913 21.1023C63.5481 21.1023 63.1593 20.9968 62.8248 20.7859C62.4924 20.5749 62.2324 20.2798 62.0449 19.9006C61.8596 19.5213 61.7669 19.0781 61.7669 18.571C61.7669 18.0597 61.8596 17.6133 62.0449 17.2319C62.2324 16.8505 62.4924 16.5543 62.8248 16.3434C63.1593 16.1325 63.5481 16.027 63.9913 16.027C64.4345 16.027 64.8223 16.1325 65.1547 16.3434C65.4892 16.5543 65.7491 16.8505 65.9345 17.2319C66.122 17.6133 66.2157 18.0597 66.2157 18.571C66.2157 19.0781 66.122 19.5213 65.9345 19.9006C65.7491 20.2798 65.4892 20.5749 65.1547 20.7859C64.8223 20.9968 64.4345 21.1023 63.9913 21.1023ZM63.9913 20.4247C64.3279 20.4247 64.6049 20.3384 64.8223 20.1658C65.0396 19.9933 65.2005 19.7663 65.3049 19.4851C65.4093 19.2038 65.4615 18.8991 65.4615 18.571C65.4615 18.2429 65.4093 17.9371 65.3049 17.6538C65.2005 17.3704 65.0396 17.1413 64.8223 16.9666C64.6049 16.7919 64.3279 16.7045 63.9913 16.7045C63.6547 16.7045 63.3777 16.7919 63.1603 16.9666C62.943 17.1413 62.7821 17.3704 62.6777 17.6538C62.5733 17.9371 62.5211 18.2429 62.5211 18.571C62.5211 18.8991 62.5733 19.2038 62.6777 19.4851C62.7821 19.7663 62.943 19.9933 63.1603 20.1658C63.3777 20.3384 63.6547 20.4247 63.9913 20.4247ZM66.8581 21L68.8525 18.5071L66.8837 16.0909H67.7786L69.415 18.1875H69.824V16.0909H70.5783V18.1875H70.9746L72.611 16.0909H73.5059L71.5499 18.5071L73.5314 21H72.6238L70.9618 18.8906H70.5783V21H69.824V18.8906H69.4405L67.7658 21H66.8581ZM77.8948 18.2003V18.9034H75.1846V18.2003H77.8948ZM75.3635 16.0909V21H74.6093V16.0909H75.3635ZM78.4701 16.0909V21H77.7158V16.0909H78.4701ZM81.2922 21.1151C80.9811 21.1151 80.6988 21.0565 80.4452 20.9393C80.1917 20.82 79.9903 20.6484 79.8412 20.4247C79.692 20.1989 79.6175 19.9261 79.6175 19.6065C79.6175 19.3253 79.6729 19.0973 79.7836 18.9226C79.8944 18.7457 80.0425 18.6072 80.2279 18.5071C80.4133 18.407 80.6178 18.3324 80.8415 18.2834C81.0674 18.2322 81.2943 18.1918 81.5223 18.1619C81.8206 18.1236 82.0624 18.0948 82.2478 18.0756C82.4353 18.0543 82.5716 18.0192 82.6569 17.9702C82.7442 17.9212 82.7879 17.8359 82.7879 17.7145V17.6889C82.7879 17.3736 82.7016 17.1286 82.529 16.9538C82.3586 16.7791 82.0997 16.6918 81.7524 16.6918C81.3923 16.6918 81.11 16.7706 80.9055 16.9283C80.7009 17.0859 80.5571 17.2543 80.474 17.4332L79.7581 17.1776C79.8859 16.8793 80.0564 16.647 80.2694 16.4808C80.4846 16.3125 80.719 16.1953 80.9726 16.1293C81.2282 16.0611 81.4797 16.027 81.7268 16.027C81.8845 16.027 82.0656 16.0462 82.2702 16.0845C82.4768 16.1207 82.676 16.1964 82.8678 16.3114C83.0617 16.4265 83.2226 16.6001 83.3504 16.8324C83.4782 17.0646 83.5422 17.3757 83.5422 17.7656V21H82.7879V20.3352H82.7496C82.6984 20.4418 82.6132 20.5558 82.4939 20.6772C82.3746 20.7987 82.2158 20.902 82.0177 20.9872C81.8195 21.0724 81.5777 21.1151 81.2922 21.1151ZM81.4072 20.4375C81.7055 20.4375 81.9569 20.3789 82.1615 20.2617C82.3682 20.1445 82.5237 19.9933 82.6281 19.8079C82.7346 19.6225 82.7879 19.4276 82.7879 19.223V18.5327C82.7559 18.571 82.6856 18.6062 82.577 18.6381C82.4704 18.668 82.3469 18.6946 82.2062 18.718C82.0677 18.7393 81.9324 18.7585 81.8003 18.7756C81.6704 18.7905 81.5649 18.8033 81.4839 18.8139C81.2879 18.8395 81.1047 18.881 80.9342 18.9386C80.7659 18.994 80.6295 19.0781 80.5251 19.1911C80.4229 19.3018 80.3717 19.4531 80.3717 19.6449C80.3717 19.907 80.4687 20.1051 80.6626 20.2393C80.8586 20.3714 81.1068 20.4375 81.4072 20.4375ZM87.1433 19.7472H87.9487C87.9657 19.9687 88.0659 20.1371 88.2491 20.2521C88.4345 20.3672 88.6752 20.4247 88.9714 20.4247C89.274 20.4247 89.5328 20.3629 89.748 20.2393C89.9632 20.1136 90.0708 19.9112 90.0708 19.6321C90.0708 19.468 90.0304 19.3253 89.9494 19.2038C89.8684 19.0803 89.7544 18.9844 89.6074 18.9162C89.4604 18.848 89.2868 18.8139 89.0865 18.8139H88.2427V18.1364H89.0865C89.3869 18.1364 89.6085 18.0682 89.7512 17.9318C89.8961 17.7955 89.9686 17.625 89.9686 17.4205C89.9686 17.201 89.8908 17.0252 89.7353 16.8931C89.5797 16.7589 89.3592 16.6918 89.0737 16.6918C88.786 16.6918 88.5463 16.7567 88.3546 16.8867C88.1628 17.0146 88.0616 17.1797 88.051 17.3821H87.2583C87.2669 17.1179 87.3478 16.8846 87.5012 16.6822C87.6547 16.4776 87.8635 16.3178 88.1277 16.2028C88.3919 16.0856 88.6944 16.027 89.0353 16.027C89.3805 16.027 89.6799 16.0877 89.9334 16.2092C90.1891 16.3285 90.3862 16.4915 90.5247 16.6982C90.6653 16.9027 90.7356 17.1349 90.7356 17.3949C90.7356 17.6719 90.6578 17.8956 90.5023 18.0661C90.3468 18.2365 90.1518 18.358 89.9174 18.4304V18.4815C90.1028 18.4943 90.2637 18.554 90.4 18.6605C90.5385 18.7649 90.6461 18.9023 90.7228 19.0728C90.7995 19.2411 90.8379 19.4276 90.8379 19.6321C90.8379 19.9304 90.758 20.1903 90.5982 20.4119C90.4384 20.6314 90.2189 20.8018 89.9398 20.9233C89.6607 21.0426 89.3422 21.1023 88.9842 21.1023C88.6369 21.1023 88.3258 21.0458 88.051 20.9329C87.7761 20.8178 87.5577 20.6591 87.3958 20.4567C87.236 20.2521 87.1518 20.0156 87.1433 19.7472ZM93.342 21.1151C93.0309 21.1151 92.7486 21.0565 92.495 20.9393C92.2415 20.82 92.0401 20.6484 91.891 20.4247C91.7418 20.1989 91.6673 19.9261 91.6673 19.6065C91.6673 19.3253 91.7227 19.0973 91.8335 18.9226C91.9442 18.7457 92.0923 18.6072 92.2777 18.5071C92.4631 18.407 92.6676 18.3324 92.8913 18.2834C93.1172 18.2322 93.3441 18.1918 93.5721 18.1619C93.8704 18.1236 94.1122 18.0948 94.2976 18.0756C94.4851 18.0543 94.6214 18.0192 94.7067 17.9702C94.794 17.9212 94.8377 17.8359 94.8377 17.7145V17.6889C94.8377 17.3736 94.7514 17.1286 94.5788 16.9538C94.4084 16.7791 94.1495 16.6918 93.8022 16.6918C93.4421 16.6918 93.1598 16.7706 92.9553 16.9283C92.7507 17.0859 92.6069 17.2543 92.5238 17.4332L91.8079 17.1776C91.9357 16.8793 92.1062 16.647 92.3192 16.4808C92.5344 16.3125 92.7688 16.1953 93.0224 16.1293C93.2781 16.0611 93.5295 16.027 93.7766 16.027C93.9343 16.027 94.1154 16.0462 94.32 16.0845C94.5266 16.1207 94.7259 16.1964 94.9176 16.3114C95.1115 16.4265 95.2724 16.6001 95.4002 16.8324C95.5281 17.0646 95.592 17.3757 95.592 17.7656V21H94.8377V20.3352H94.7994C94.7482 20.4418 94.663 20.5558 94.5437 20.6772C94.4244 20.7987 94.2656 20.902 94.0675 20.9872C93.8693 21.0724 93.6275 21.1151 93.342 21.1151ZM93.457 20.4375C93.7553 20.4375 94.0067 20.3789 94.2113 20.2617C94.418 20.1445 94.5735 19.9933 94.6779 19.8079C94.7844 19.6225 94.8377 19.4276 94.8377 19.223V18.5327C94.8058 18.571 94.7354 18.6062 94.6268 18.6381C94.5202 18.668 94.3967 18.6946 94.256 18.718C94.1175 18.7393 93.9822 18.7585 93.8501 18.7756C93.7202 18.7905 93.6147 18.8033 93.5337 18.8139C93.3377 18.8395 93.1545 18.881 92.984 18.9386C92.8157 18.994 92.6793 19.0781 92.5749 19.1911C92.4727 19.3018 92.4215 19.4531 92.4215 19.6449C92.4215 19.907 92.5185 20.1051 92.7124 20.2393C92.9084 20.3714 93.1566 20.4375 93.457 20.4375ZM96.4445 22.4062V20.2969H96.8536C96.9537 20.1925 97.04 20.0795 97.1125 19.9581C97.1849 19.8366 97.2478 19.6928 97.301 19.5266C97.3564 19.3583 97.4033 19.1538 97.4417 18.913C97.48 18.6701 97.5141 18.3771 97.5439 18.0341L97.7101 16.0909H100.829V20.2969H101.584V22.4062H100.829V21H97.1988V22.4062H96.4445ZM97.7101 20.2969H100.075V16.794H98.4133L98.2854 18.0341C98.2322 18.5476 98.1661 18.9961 98.0873 19.3796C98.0084 19.7631 97.8827 20.0689 97.7101 20.2969ZM104.643 21.1023C104.17 21.1023 103.762 20.9979 103.419 20.7891C103.078 20.5781 102.815 20.2841 102.63 19.907C102.446 19.5277 102.355 19.0866 102.355 18.5838C102.355 18.081 102.446 17.6378 102.63 17.2543C102.815 16.8686 103.073 16.5682 103.403 16.353C103.735 16.1357 104.123 16.027 104.566 16.027C104.822 16.027 105.075 16.0696 105.324 16.1548C105.573 16.2401 105.8 16.3786 106.005 16.5703C106.209 16.7599 106.372 17.0114 106.494 17.3246C106.615 17.6378 106.676 18.0234 106.676 18.4815V18.8011H102.892V18.1491H105.909C105.909 17.8722 105.853 17.625 105.743 17.4077C105.634 17.1903 105.478 17.0188 105.276 16.8931C105.076 16.7674 104.839 16.7045 104.566 16.7045C104.266 16.7045 104.006 16.7791 103.787 16.9283C103.569 17.0753 103.402 17.267 103.285 17.5036C103.168 17.7401 103.109 17.9936 103.109 18.2642V18.6989C103.109 19.0696 103.173 19.3839 103.301 19.6417C103.431 19.8974 103.611 20.0923 103.841 20.2266C104.071 20.3587 104.338 20.4247 104.643 20.4247C104.841 20.4247 105.02 20.397 105.18 20.3416C105.342 20.2841 105.482 20.1989 105.599 20.0859C105.716 19.9709 105.806 19.8281 105.87 19.6577L106.599 19.8622C106.522 20.1094 106.393 20.3267 106.212 20.5142C106.031 20.6996 105.808 20.8445 105.541 20.9489C105.275 21.0511 104.975 21.1023 104.643 21.1023ZM107.823 22.8409V16.0909H108.552V16.8707H108.641C108.697 16.7855 108.773 16.6768 108.871 16.5447C108.972 16.4105 109.114 16.2912 109.3 16.1868C109.487 16.0803 109.741 16.027 110.06 16.027C110.474 16.027 110.838 16.1303 111.153 16.337C111.469 16.5437 111.715 16.8366 111.892 17.2159C112.069 17.5952 112.157 18.0426 112.157 18.5582C112.157 19.0781 112.069 19.5288 111.892 19.9102C111.715 20.2894 111.47 20.5835 111.157 20.7923C110.843 20.9989 110.482 21.1023 110.073 21.1023C109.758 21.1023 109.505 21.0501 109.316 20.9457C109.126 20.8391 108.98 20.7187 108.878 20.5845C108.776 20.4482 108.697 20.3352 108.641 20.2457H108.577V22.8409H107.823ZM108.565 18.5455C108.565 18.9162 108.619 19.2433 108.728 19.5266C108.836 19.8079 108.995 20.0284 109.204 20.1882C109.413 20.3459 109.668 20.4247 109.971 20.4247C110.286 20.4247 110.549 20.3416 110.76 20.1754C110.973 20.0071 111.133 19.7812 111.24 19.4979C111.348 19.2124 111.403 18.8949 111.403 18.5455C111.403 18.2003 111.349 17.8892 111.243 17.6122C111.138 17.3331 110.98 17.1126 110.767 16.9506C110.556 16.7866 110.29 16.7045 109.971 16.7045C109.664 16.7045 109.406 16.7823 109.197 16.9379C108.989 17.0913 108.831 17.3065 108.724 17.5835C108.618 17.8583 108.565 18.179 108.565 18.5455ZM112.799 21L114.793 18.5071L112.824 16.0909H113.719L115.355 18.1875H115.764V16.0909H116.519V18.1875H116.915L118.551 16.0909H119.446L117.49 18.5071L119.472 21H118.564L116.902 18.8906H116.519V21H115.764V18.8906H115.381L113.706 21H112.799ZM120.55 21V16.0909H121.304V18.2259H121.803L123.567 16.0909H124.538L122.557 18.456L124.564 21H123.592L121.982 18.929H121.304V21H120.55ZM126.828 21.1151C126.517 21.1151 126.235 21.0565 125.981 20.9393C125.728 20.82 125.526 20.6484 125.377 20.4247C125.228 20.1989 125.154 19.9261 125.154 19.6065C125.154 19.3253 125.209 19.0973 125.32 18.9226C125.431 18.7457 125.579 18.6072 125.764 18.5071C125.949 18.407 126.154 18.3324 126.378 18.2834C126.604 18.2322 126.83 18.1918 127.058 18.1619C127.357 18.1236 127.599 18.0948 127.784 18.0756C127.971 18.0543 128.108 18.0192 128.193 17.9702C128.28 17.9212 128.324 17.8359 128.324 17.7145V17.6889C128.324 17.3736 128.238 17.1286 128.065 16.9538C127.895 16.7791 127.636 16.6918 127.289 16.6918C126.928 16.6918 126.646 16.7706 126.442 16.9283C126.237 17.0859 126.093 17.2543 126.01 17.4332L125.294 17.1776C125.422 16.8793 125.593 16.647 125.806 16.4808C126.021 16.3125 126.255 16.1953 126.509 16.1293C126.764 16.0611 127.016 16.027 127.263 16.027C127.421 16.027 127.602 16.0462 127.806 16.0845C128.013 16.1207 128.212 16.1964 128.404 16.3114C128.598 16.4265 128.759 16.6001 128.887 16.8324C129.014 17.0646 129.078 17.3757 129.078 17.7656V21H128.324V20.3352H128.286C128.235 20.4418 128.149 20.5558 128.03 20.6772C127.911 20.7987 127.752 20.902 127.554 20.9872C127.356 21.0724 127.114 21.1151 126.828 21.1151ZM126.943 20.4375C127.242 20.4375 127.493 20.3789 127.698 20.2617C127.904 20.1445 128.06 19.9933 128.164 19.8079C128.271 19.6225 128.324 19.4276 128.324 19.223V18.5327C128.292 18.571 128.222 18.6062 128.113 18.6381C128.007 18.668 127.883 18.6946 127.742 18.718C127.604 18.7393 127.469 18.7585 127.336 18.7756C127.206 18.7905 127.101 18.8033 127.02 18.8139C126.824 18.8395 126.641 18.881 126.47 18.9386C126.302 18.994 126.166 19.0781 126.061 19.1911C125.959 19.3018 125.908 19.4531 125.908 19.6449C125.908 19.907 126.005 20.1051 126.199 20.2393C126.395 20.3714 126.643 20.4375 126.943 20.4375ZM131.58 20.1051L131.529 20.4503C131.493 20.6932 131.437 20.9531 131.363 21.2301C131.29 21.5071 131.215 21.7681 131.136 22.0131C131.057 22.2582 130.992 22.4531 130.941 22.598H130.366C130.393 22.4616 130.429 22.2816 130.474 22.0579C130.519 21.8342 130.564 21.5838 130.608 21.3068C130.655 21.032 130.694 20.7507 130.723 20.4631L130.762 20.1051H131.58ZM138.193 19.9773L139.906 16.0909H140.622L138.5 21H137.887L135.803 16.0909H136.506L138.193 19.9773ZM136.263 16.0909V21H135.509V16.0909H136.263ZM140.124 21V16.0909H140.878V21H140.124ZM144.253 21.1023C143.81 21.1023 143.421 20.9968 143.086 20.7859C142.754 20.5749 142.494 20.2798 142.307 19.9006C142.121 19.5213 142.029 19.0781 142.029 18.571C142.029 18.0597 142.121 17.6133 142.307 17.2319C142.494 16.8505 142.754 16.5543 143.086 16.3434C143.421 16.1325 143.81 16.027 144.253 16.027C144.696 16.027 145.084 16.1325 145.416 16.3434C145.751 16.5543 146.011 16.8505 146.196 17.2319C146.384 17.6133 146.477 18.0597 146.477 18.571C146.477 19.0781 146.384 19.5213 146.196 19.9006C146.011 20.2798 145.751 20.5749 145.416 20.7859C145.084 20.9968 144.696 21.1023 144.253 21.1023ZM144.253 20.4247C144.59 20.4247 144.867 20.3384 145.084 20.1658C145.301 19.9933 145.462 19.7663 145.567 19.4851C145.671 19.2038 145.723 18.8991 145.723 18.571C145.723 18.2429 145.671 17.9371 145.567 17.6538C145.462 17.3704 145.301 17.1413 145.084 16.9666C144.867 16.7919 144.59 16.7045 144.253 16.7045C143.916 16.7045 143.639 16.7919 143.422 16.9666C143.205 17.1413 143.044 17.3704 142.939 17.6538C142.835 17.9371 142.783 18.2429 142.783 18.571C142.783 18.8991 142.835 19.2038 142.939 19.4851C143.044 19.7663 143.205 19.9933 143.422 20.1658C143.639 20.3384 143.916 20.4247 144.253 20.4247ZM147.12 21L149.114 18.5071L147.145 16.0909H148.04L149.677 18.1875H150.086V16.0909H150.84V18.1875H151.236L152.873 16.0909H153.768L151.812 18.5071L153.793 21H152.885L151.224 18.8906H150.84V21H150.086V18.8906H149.702L148.028 21H147.12ZM156.727 21.1023C156.254 21.1023 155.846 20.9979 155.503 20.7891C155.162 20.5781 154.899 20.2841 154.714 19.907C154.53 19.5277 154.439 19.0866 154.439 18.5838C154.439 18.081 154.53 17.6378 154.714 17.2543C154.899 16.8686 155.157 16.5682 155.487 16.353C155.819 16.1357 156.207 16.027 156.65 16.027C156.906 16.027 157.159 16.0696 157.408 16.1548C157.657 16.2401 157.884 16.3786 158.089 16.5703C158.293 16.7599 158.456 17.0114 158.578 17.3246C158.699 17.6378 158.76 18.0234 158.76 18.4815V18.8011H154.976V18.1491H157.993C157.993 17.8722 157.937 17.625 157.827 17.4077C157.718 17.1903 157.562 17.0188 157.36 16.8931C157.16 16.7674 156.923 16.7045 156.65 16.7045C156.35 16.7045 156.09 16.7791 155.871 16.9283C155.653 17.0753 155.486 17.267 155.369 17.5036C155.252 17.7401 155.193 17.9936 155.193 18.2642V18.6989C155.193 19.0696 155.257 19.3839 155.385 19.6417C155.515 19.8974 155.695 20.0923 155.925 20.2266C156.155 20.3587 156.422 20.4247 156.727 20.4247C156.925 20.4247 157.104 20.397 157.264 20.3416C157.426 20.2841 157.566 20.1989 157.683 20.0859C157.8 19.9709 157.89 19.8281 157.954 19.6577L158.683 19.8622C158.606 20.1094 158.477 20.3267 158.296 20.5142C158.115 20.6996 157.892 20.8445 157.625 20.9489C157.359 21.0511 157.059 21.1023 156.727 21.1023ZM159.45 16.794V16.0909H163.439V16.794H161.828V21H161.074V16.794H159.45ZM166.342 21.1023C165.869 21.1023 165.461 20.9979 165.118 20.7891C164.777 20.5781 164.514 20.2841 164.329 19.907C164.146 19.5277 164.054 19.0866 164.054 18.5838C164.054 18.081 164.146 17.6378 164.329 17.2543C164.514 16.8686 164.772 16.5682 165.102 16.353C165.435 16.1357 165.822 16.027 166.266 16.027C166.521 16.027 166.774 16.0696 167.023 16.1548C167.272 16.2401 167.499 16.3786 167.704 16.5703C167.908 16.7599 168.071 17.0114 168.193 17.3246C168.314 17.6378 168.375 18.0234 168.375 18.4815V18.8011H164.591V18.1491H167.608C167.608 17.8722 167.553 17.625 167.442 17.4077C167.333 17.1903 167.178 17.0188 166.975 16.8931C166.775 16.7674 166.538 16.7045 166.266 16.7045C165.965 16.7045 165.705 16.7791 165.486 16.9283C165.268 17.0753 165.101 17.267 164.984 17.5036C164.867 17.7401 164.808 17.9936 164.808 18.2642V18.6989C164.808 19.0696 164.872 19.3839 165 19.6417C165.13 19.8974 165.31 20.0923 165.54 20.2266C165.77 20.3587 166.038 20.4247 166.342 20.4247C166.54 20.4247 166.719 20.397 166.879 20.3416C167.041 20.2841 167.181 20.1989 167.298 20.0859C167.415 19.9709 167.506 19.8281 167.57 19.6577L168.298 19.8622C168.222 20.1094 168.093 20.3267 167.912 20.5142C167.73 20.6996 167.507 20.8445 167.24 20.9489C166.974 21.0511 166.675 21.1023 166.342 21.1023ZM172.054 21V16.0909H175.914V21H175.16V16.794H172.808V21H172.054ZM179.35 21.1023C178.877 21.1023 178.469 20.9979 178.126 20.7891C177.785 20.5781 177.522 20.2841 177.337 19.907C177.153 19.5277 177.062 19.0866 177.062 18.5838C177.062 18.081 177.153 17.6378 177.337 17.2543C177.522 16.8686 177.78 16.5682 178.11 16.353C178.442 16.1357 178.83 16.027 179.273 16.027C179.529 16.027 179.782 16.0696 180.031 16.1548C180.28 16.2401 180.507 16.3786 180.712 16.5703C180.916 16.7599 181.079 17.0114 181.201 17.3246C181.322 17.6378 181.383 18.0234 181.383 18.4815V18.8011H177.599V18.1491H180.616C180.616 17.8722 180.56 17.625 180.45 17.4077C180.341 17.1903 180.185 17.0188 179.983 16.8931C179.783 16.7674 179.546 16.7045 179.273 16.7045C178.973 16.7045 178.713 16.7791 178.494 16.9283C178.276 17.0753 178.109 17.267 177.992 17.5036C177.875 17.7401 177.816 17.9936 177.816 18.2642V18.6989C177.816 19.0696 177.88 19.3839 178.008 19.6417C178.138 19.8974 178.318 20.0923 178.548 20.2266C178.778 20.3587 179.045 20.4247 179.35 20.4247C179.548 20.4247 179.727 20.397 179.887 20.3416C180.049 20.2841 180.189 20.1989 180.306 20.0859C180.423 19.9709 180.513 19.8281 180.577 19.6577L181.306 19.8622C181.229 20.1094 181.1 20.3267 180.919 20.5142C180.738 20.6996 180.515 20.8445 180.248 20.9489C179.982 21.0511 179.683 21.1023 179.35 21.1023ZM182.53 22.8409V16.0909H183.259V16.8707H183.348C183.404 16.7855 183.48 16.6768 183.578 16.5447C183.679 16.4105 183.821 16.2912 184.007 16.1868C184.194 16.0803 184.448 16.027 184.767 16.027C185.181 16.027 185.545 16.1303 185.86 16.337C186.176 16.5437 186.422 16.8366 186.599 17.2159C186.776 17.5952 186.864 18.0426 186.864 18.5582C186.864 19.0781 186.776 19.5288 186.599 19.9102C186.422 20.2894 186.177 20.5835 185.864 20.7923C185.55 20.9989 185.189 21.1023 184.78 21.1023C184.465 21.1023 184.212 21.0501 184.023 20.9457C183.833 20.8391 183.687 20.7187 183.585 20.5845C183.483 20.4482 183.404 20.3352 183.348 20.2457H183.284V22.8409H182.53ZM183.272 18.5455C183.272 18.9162 183.326 19.2433 183.435 19.5266C183.543 19.8079 183.702 20.0284 183.911 20.1882C184.12 20.3459 184.375 20.4247 184.678 20.4247C184.993 20.4247 185.256 20.3416 185.467 20.1754C185.68 20.0071 185.84 19.7812 185.947 19.4979C186.055 19.2124 186.11 18.8949 186.11 18.5455C186.11 18.2003 186.056 17.8892 185.95 17.6122C185.846 17.3331 185.687 17.1126 185.474 16.9506C185.263 16.7866 184.998 16.7045 184.678 16.7045C184.371 16.7045 184.113 16.7823 183.904 16.9379C183.696 17.0913 183.538 17.3065 183.431 17.5835C183.325 17.8583 183.272 18.179 183.272 18.5455ZM190.073 21.1023C189.6 21.1023 189.192 20.9979 188.849 20.7891C188.508 20.5781 188.245 20.2841 188.059 19.907C187.876 19.5277 187.784 19.0866 187.784 18.5838C187.784 18.081 187.876 17.6378 188.059 17.2543C188.245 16.8686 188.502 16.5682 188.833 16.353C189.165 16.1357 189.553 16.027 189.996 16.027C190.252 16.027 190.504 16.0696 190.754 16.1548C191.003 16.2401 191.23 16.3786 191.434 16.5703C191.639 16.7599 191.802 17.0114 191.923 17.3246C192.045 17.6378 192.105 18.0234 192.105 18.4815V18.8011H188.321V18.1491H191.338C191.338 17.8722 191.283 17.625 191.172 17.4077C191.064 17.1903 190.908 17.0188 190.706 16.8931C190.505 16.7674 190.269 16.7045 189.996 16.7045C189.696 16.7045 189.436 16.7791 189.216 16.9283C188.999 17.0753 188.832 17.267 188.714 17.5036C188.597 17.7401 188.539 17.9936 188.539 18.2642V18.6989C188.539 19.0696 188.603 19.3839 188.73 19.6417C188.86 19.8974 189.04 20.0923 189.271 20.2266C189.501 20.3587 189.768 20.4247 190.073 20.4247C190.271 20.4247 190.45 20.397 190.61 20.3416C190.772 20.2841 190.911 20.1989 191.028 20.0859C191.146 19.9709 191.236 19.8281 191.3 19.6577L192.029 19.8622C191.952 20.1094 191.823 20.3267 191.642 20.5142C191.461 20.6996 191.237 20.8445 190.971 20.9489C190.705 21.0511 190.405 21.1023 190.073 21.1023ZM193.253 21V16.0909H194.007V18.2259H194.506L196.27 16.0909H197.241L195.26 18.456L197.267 21H196.295L194.685 18.929H194.007V21H193.253ZM197.652 21V20.2969H197.831C197.978 20.2969 198.101 20.2681 198.199 20.2106C198.297 20.1509 198.376 20.0476 198.435 19.9006C198.497 19.7514 198.544 19.5447 198.576 19.2805C198.61 19.0142 198.634 18.6754 198.649 18.2642L198.739 16.0909H202.012V21H201.257V16.794H199.455L199.378 18.5455C199.361 18.9482 199.325 19.3029 199.269 19.6097C199.216 19.9144 199.134 20.1701 199.023 20.3768C198.915 20.5835 198.77 20.739 198.589 20.8434C198.407 20.9478 198.181 21 197.908 21H197.652ZM205.748 18.2386V18.9418H203.153V18.2386H205.748ZM203.792 16.0909V21H203.037V16.0909H203.792ZM207.256 21.1023C206.813 21.1023 206.424 20.9968 206.09 20.7859C205.757 20.5749 205.497 20.2798 205.31 19.9006C205.124 19.5213 205.032 19.0781 205.032 18.571C205.032 18.0597 205.124 17.6133 205.31 17.2319C205.497 16.8505 205.757 16.5543 206.09 16.3434C206.424 16.1325 206.813 16.027 207.256 16.027C207.699 16.027 208.087 16.1325 208.42 16.3434C208.754 16.5543 209.014 16.8505 209.199 17.2319C209.387 17.6133 209.481 18.0597 209.481 18.571C209.481 19.0781 209.387 19.5213 209.199 19.9006C209.014 20.2798 208.754 20.5749 208.42 20.7859C208.087 20.9968 207.699 21.1023 207.256 21.1023ZM207.256 20.4247C207.593 20.4247 207.87 20.3384 208.087 20.1658C208.305 19.9933 208.465 19.7663 208.57 19.4851C208.674 19.2038 208.726 18.8991 208.726 18.571C208.726 18.2429 208.674 17.9371 208.57 17.6538C208.465 17.3704 208.305 17.1413 208.087 16.9666C207.87 16.7919 207.593 16.7045 207.256 16.7045C206.92 16.7045 206.643 16.7919 206.425 16.9666C206.208 17.1413 206.047 17.3704 205.943 17.6538C205.838 17.9371 205.786 18.2429 205.786 18.571C205.786 18.8991 205.838 19.2038 205.943 19.4851C206.047 19.7663 206.208 19.9933 206.425 20.1658C206.643 20.3384 206.92 20.4247 207.256 20.4247ZM214.492 16.0909V21H213.738V16.0909H214.492ZM214.198 18.4304V19.1335C214.028 19.1974 213.858 19.2539 213.69 19.3029C213.521 19.3498 213.345 19.3871 213.159 19.4148C212.974 19.4403 212.77 19.4531 212.549 19.4531C211.993 19.4531 211.546 19.3029 211.21 19.0025C210.875 18.7021 210.708 18.2514 210.708 17.6506V16.0781H211.462V17.6506C211.462 17.902 211.51 18.1087 211.606 18.2706C211.702 18.4325 211.832 18.5529 211.996 18.6317C212.16 18.7106 212.344 18.75 212.549 18.75C212.868 18.75 213.157 18.7212 213.415 18.6637C213.675 18.604 213.936 18.5263 214.198 18.4304ZM216.63 19.8878L218.995 16.0909H219.865V21H219.11V17.2031L216.758 21H215.876V16.0909H216.63V19.8878ZM220.578 16.794V16.0909H224.567V16.794H222.956V21H222.202V16.794H220.578ZM226.319 17.8679H227.725C228.3 17.8679 228.74 18.0138 229.045 18.3058C229.35 18.5977 229.502 18.9673 229.502 19.4148C229.502 19.7088 229.434 19.9762 229.298 20.217C229.161 20.4556 228.961 20.6463 228.697 20.7891C228.433 20.9297 228.109 21 227.725 21H225.667V16.0909H226.421V20.2969H227.725C228.023 20.2969 228.268 20.218 228.46 20.0604C228.652 19.9027 228.748 19.7003 228.748 19.4531C228.748 19.1932 228.652 18.9812 228.46 18.8171C228.268 18.6531 228.023 18.571 227.725 18.571H226.319V17.8679ZM232.645 21.1023C232.184 21.1023 231.788 20.9936 231.456 20.7763C231.123 20.5589 230.868 20.2596 230.689 19.8782C230.51 19.4968 230.42 19.0611 230.42 18.571C230.42 18.0724 230.512 17.6325 230.695 17.2511C230.88 16.8675 231.138 16.5682 231.468 16.353C231.801 16.1357 232.189 16.027 232.632 16.027C232.977 16.027 233.288 16.0909 233.565 16.2188C233.842 16.3466 234.069 16.5256 234.246 16.7557C234.423 16.9858 234.532 17.2543 234.575 17.5611H233.821C233.763 17.3374 233.635 17.1392 233.437 16.9666C233.241 16.7919 232.977 16.7045 232.645 16.7045C232.351 16.7045 232.093 16.7812 231.871 16.9347C231.652 17.0859 231.48 17.3001 231.357 17.5771C231.235 17.8519 231.174 18.1747 231.174 18.5455C231.174 18.9247 231.234 19.255 231.353 19.5362C231.475 19.8175 231.645 20.0359 231.865 20.1914C232.086 20.3469 232.346 20.4247 232.645 20.4247C232.841 20.4247 233.019 20.3906 233.178 20.3224C233.338 20.2543 233.473 20.1562 233.584 20.0284C233.695 19.9006 233.774 19.7472 233.821 19.5682H234.575C234.532 19.858 234.427 20.119 234.259 20.3512C234.092 20.5813 233.872 20.7646 233.597 20.9009C233.324 21.0352 233.007 21.1023 232.645 21.1023ZM238.631 21V16.7812H237.327C237.033 16.7812 236.802 16.8494 236.633 16.9858C236.465 17.1222 236.381 17.3097 236.381 17.5483C236.381 17.7827 236.456 17.967 236.608 18.1012C236.761 18.2354 236.971 18.3026 237.237 18.3026H238.823V19.0057H237.237C236.905 19.0057 236.618 18.9471 236.378 18.8299C236.137 18.7127 235.951 18.5455 235.821 18.3281C235.691 18.1087 235.627 17.8487 235.627 17.5483C235.627 17.2457 235.695 16.9858 235.831 16.7685C235.967 16.5511 236.162 16.3839 236.416 16.2667C236.672 16.1495 236.975 16.0909 237.327 16.0909H239.347V21H238.631ZM235.358 21L236.752 18.5582H237.57L236.176 21H235.358ZM246.548 18.2003V18.9034H243.838V18.2003H246.548ZM244.017 16.0909V21H243.263V16.0909H244.017ZM247.123 16.0909V21H246.369V16.0909H247.123ZM249.945 21.1151C249.634 21.1151 249.352 21.0565 249.099 20.9393C248.845 20.82 248.644 20.6484 248.494 20.4247C248.345 20.1989 248.271 19.9261 248.271 19.6065C248.271 19.3253 248.326 19.0973 248.437 18.9226C248.548 18.7457 248.696 18.6072 248.881 18.5071C249.067 18.407 249.271 18.3324 249.495 18.2834C249.721 18.2322 249.948 18.1918 250.176 18.1619C250.474 18.1236 250.716 18.0948 250.901 18.0756C251.089 18.0543 251.225 18.0192 251.31 17.9702C251.398 17.9212 251.441 17.8359 251.441 17.7145V17.6889C251.441 17.3736 251.355 17.1286 251.182 16.9538C251.012 16.7791 250.753 16.6918 250.406 16.6918C250.046 16.6918 249.763 16.7706 249.559 16.9283C249.354 17.0859 249.21 17.2543 249.127 17.4332L248.411 17.1776C248.539 16.8793 248.71 16.647 248.923 16.4808C249.138 16.3125 249.372 16.1953 249.626 16.1293C249.882 16.0611 250.133 16.027 250.38 16.027C250.538 16.027 250.719 16.0462 250.923 16.0845C251.13 16.1207 251.329 16.1964 251.521 16.3114C251.715 16.4265 251.876 16.6001 252.004 16.8324C252.132 17.0646 252.195 17.3757 252.195 17.7656V21H251.441V20.3352H251.403C251.352 20.4418 251.267 20.5558 251.147 20.6772C251.028 20.7987 250.869 20.902 250.671 20.9872C250.473 21.0724 250.231 21.1151 249.945 21.1151ZM250.061 20.4375C250.359 20.4375 250.61 20.3789 250.815 20.2617C251.021 20.1445 251.177 19.9933 251.281 19.8079C251.388 19.6225 251.441 19.4276 251.441 19.223V18.5327C251.409 18.571 251.339 18.6062 251.23 18.6381C251.124 18.668 251 18.6946 250.86 18.718C250.721 18.7393 250.586 18.7585 250.454 18.7756C250.324 18.7905 250.218 18.8033 250.137 18.8139C249.941 18.8395 249.758 18.881 249.588 18.9386C249.419 18.994 249.283 19.0781 249.178 19.1911C249.076 19.3018 249.025 19.4531 249.025 19.6449C249.025 19.907 249.122 20.1051 249.316 20.2393C249.512 20.3714 249.76 20.4375 250.061 20.4375Z" fill="#EEEFF3"/>
<path d="M271.574 23.875H261.657C260.095 23.875 258.824 22.6042 258.824 21.0417V13.9583C258.824 12.3957 260.095 11.125 261.657 11.125H271.574C273.136 11.125 274.407 12.3957 274.407 13.9583V21.0417C274.407 22.6042 273.136 23.875 271.574 23.875ZM272.99 13.9583C272.99 13.177 272.356 12.5417 271.574 12.5417H261.657C260.875 12.5417 260.24 13.177 260.24 13.9583V21.0417C260.24 21.823 260.875 22.4583 261.657 22.4583H271.574C272.356 22.4583 272.99 21.823 272.99 21.0417V13.9583ZM270.157 17.5C269.375 17.5 268.74 16.866 268.74 16.0833C268.74 15.3006 269.375 14.6667 270.157 14.6667C270.94 14.6667 271.574 15.3006 271.574 16.0833C271.574 16.866 270.94 17.5 270.157 17.5ZM263.782 17.5C263.39 17.5 263.074 17.1834 263.074 16.7917C263.074 16.4 263.39 16.0833 263.782 16.0833C264.174 16.0833 264.49 16.4 264.49 16.7917C264.49 17.1834 264.174 17.5 263.782 17.5ZM262.365 16.0833C261.974 16.0833 261.657 15.7667 261.657 15.375C261.657 14.9833 261.974 14.6667 262.365 14.6667C262.757 14.6667 263.074 14.9833 263.074 15.375C263.074 15.7667 262.757 16.0833 262.365 16.0833ZM265.199 18.9167C264.807 18.9167 264.49 18.6 264.49 18.2083C264.49 17.8166 264.807 17.5 265.199 17.5C265.59 17.5 265.907 17.8166 265.907 18.2083C265.907 18.6 265.59 18.9167 265.199 18.9167ZM268.032 18.9167C267.64 18.9167 267.324 18.6 267.324 18.2083C267.324 17.8166 267.64 17.5 268.032 17.5C268.424 17.5 268.74 17.8166 268.74 18.2083C268.74 18.6 268.424 18.9167 268.032 18.9167ZM266.615 20.3333C266.224 20.3333 265.907 20.0167 265.907 19.625C265.907 19.2333 266.224 18.9167 266.615 18.9167C267.007 18.9167 267.324 19.2333 267.324 19.625C267.324 20.0167 267.007 20.3333 266.615 20.3333Z" fill="#EEEFF3"/>
<defs>
<linearGradient id="paint0_linear_9824_99120" x1="157" y1="0" x2="157" y2="34" gradientUnits="userSpaceOnUse">
<stop stop-opacity="0"/>
<stop offset="1" stop-opacity="0.6"/>
</linearGradient>
</defs>
</svg>
