<svg width="32" height="32" viewBox="0 0 32 32" fill="none" xmlns="http://www.w3.org/2000/svg">
<path d="M27 4C27.5523 4 28 4.44772 28 5V11C28 11.5523 27.5523 12 27 12H26.3333C25.781 12 25.3333 11.5523 25.3333 11V8.54667L21.6538 12.2374C21.2634 12.6289 20.6294 12.6294 20.2385 12.2385L19.7615 11.7615C19.3706 11.3706 19.3711 10.7366 19.7626 10.3462L23.4533 6.66667H21C20.4477 6.66667 20 6.21895 20 5.66667V5C20 4.44772 20.4477 4 21 4H27ZM5 4C4.44772 4 4 4.44772 4 5V11C4 11.5523 4.44772 12 5 12H5.66667C6.21895 12 6.66667 11.5523 6.66667 11V8.54667L10.3462 12.2374C10.7366 12.6289 11.3706 12.6294 11.7615 12.2385L12.2385 11.7615C12.6294 11.3706 12.6289 10.7366 12.2374 10.3462L8.54667 6.66667H11C11.5523 6.66667 12 6.21895 12 5.66667V5C12 4.44772 11.5523 4 11 4H5ZM27 28C27.5523 28 28 27.5523 28 27V21C28 20.4477 27.5523 20 27 20H26.3333C25.781 20 25.3333 20.4477 25.3333 21V23.4533L21.6538 19.7738C21.2632 19.3832 20.6301 19.3833 20.2396 19.7738L19.7738 20.2396C19.3832 20.6301 19.3833 21.2632 19.7738 21.6538L23.4533 25.3333H21C20.4477 25.3333 20 25.781 20 26.3333V27C20 27.5523 20.4477 28 21 28H27ZM11 28C11.5523 28 12 27.5523 12 27V26.3333C12 25.781 11.5523 25.3333 11 25.3333H8.54667L12.2287 21.6513C12.6183 21.2617 12.6194 20.6305 12.2312 20.2396L11.7615 19.7665C11.371 19.3732 10.735 19.3726 10.3437 19.7651L6.66667 23.4533V21C6.66667 20.4477 6.21895 20 5.66667 20H5C4.44772 20 4 20.4477 4 21V27C4 27.5523 4.44772 28 5 28H11Z" fill="white"/>
</svg>
