<svg width="11" height="9" viewBox="0 0 11 9" fill="none" xmlns="http://www.w3.org/2000/svg">
<path d="M5.54011 0.200991C5.80815 -0.0670467 6.24274 -0.0669473 6.51084 0.200991L10.3249 4.01507C10.4536 4.1438 10.526 4.31844 10.526 4.50043C10.526 4.68239 10.4536 4.85713 10.3249 4.9858L6.51084 8.79898C6.24275 9.06707 5.8082 9.06707 5.54011 8.79898C5.27232 8.53087 5.27212 8.09624 5.54011 7.82825L8.18235 5.18691H0.68648C0.307447 5.18691 0.000161289 4.87943 0 4.50043C0 4.1213 0.307348 3.81395 0.68648 3.81395H8.18235L5.54011 1.17172C5.27222 0.903668 5.27222 0.469041 5.54011 0.200991Z" fill="white"/>
</svg>
